<svg width="32" height="32" viewBox="0 0 32 32" fill="none" xmlns="http://www.w3.org/2000/svg">
<path d="M26.287 9.8742C18.8709 4.6608 6.3882 4.07339 0 4C0.587429 10.6819 4.03852 16.3358 5.87421 18.3183C7.78332 15.4546 11.2834 13.4476 12.9967 12.8113C11.4547 11.563 10.9407 9.7273 10.9407 8.3322C14.8324 10.9756 19.8254 10.4134 23.2765 12.2238C26.7276 14.0342 27.1682 18.0246 27.0213 19.8603C25.4059 18.3917 22.2376 18.4075 20.7065 20.5946C17.6225 25.0002 24.0405 29.4152 28.8569 26.1751C33.85 22.8161 32.822 14.133 26.287 9.8742Z" fill="url(#paint0_linear_10354_384)"/>
<defs>
<linearGradient id="paint0_linear_10354_384" x1="32.0157" y1="4.02766" x2="1.38497" y2="24.537" gradientUnits="userSpaceOnUse">
<stop stop-color="#F6781A"/>
<stop offset="1" stop-color="#F9386D"/>
</linearGradient>
</defs>
</svg>
